<svg width="50" height="50" viewBox="0 0 50 50" fill="none" xmlns="http://www.w3.org/2000/svg">

    <!-- SKILLS -->
    <g id="paint">
        <path fill-rule="evenodd" clip-rule="evenodd"
              d="M24.33 20.5852C25.896 14.8386 22.188 8.90315 16.0965 7.29835C9.21747 5.4841 -0.546033 10.1953 1.62597 16.2383C2.34597 18.237 3.73197 18.7045 6.34647 18.7414L6.50997 18.7444C7.89147 18.7606 8.27997 18.8491 8.39697 19.0349C8.58747 19.3417 8.59047 19.83 8.37597 21.1737C8.27397 21.8079 8.24097 22.0292 8.20197 22.3758C7.96347 24.4865 8.32647 26.1326 9.73197 27.6224C14.124 32.2731 22.5615 27.0722 24.33 20.5852V20.5852ZM4.45497 15.253C3.36147 12.2145 10.359 8.83825 15.3195 10.1451C19.845 11.3384 22.5585 15.6823 21.432 19.8196C20.175 24.4334 14.259 28.0796 11.931 25.6134C11.211 24.8523 11.0325 24.0381 11.184 22.7003C11.2155 22.4142 11.2455 22.2165 11.34 21.6295C11.6685 19.5689 11.664 18.6278 10.953 17.4906C10.062 16.0643 9.00297 15.8239 6.54747 15.7929L6.38847 15.7899C4.94247 15.7708 4.59897 15.6542 4.45347 15.253H4.45497Z"
              fill="#222A36"/>
        <path d="M9 14.75C8.50272 14.75 8.02581 14.5557 7.67417 14.21C7.32254 13.8642 7.125 13.3952 7.125 12.9063C7.125 12.4173 7.32254 11.9483 7.67417 11.6025C8.02581 11.2568 8.50272 11.0625 9 11.0625C9.49728 11.0625 9.97419 11.2568 10.3258 11.6025C10.6775 11.9483 10.875 12.4173 10.875 12.9063C10.875 13.3952 10.6775 13.8642 10.3258 14.21C9.97419 14.5557 9.49728 14.75 9 14.75V14.75Z"
              fill="#222A36"/>
        <path d="M14.625 14.75C14.1277 14.75 13.6508 14.5557 13.2992 14.21C12.9475 13.8642 12.75 13.3952 12.75 12.9063C12.75 12.4173 12.9475 11.9483 13.2992 11.6025C13.6508 11.2568 14.1277 11.0625 14.625 11.0625C15.1223 11.0625 15.5992 11.2568 15.9508 11.6025C16.3025 11.9483 16.5 12.4173 16.5 12.9063C16.5 13.3952 16.3025 13.8642 15.9508 14.21C15.5992 14.5557 15.1223 14.75 14.625 14.75Z"
              fill="#222A36"/>
        <path d="M18.375 19.175C17.8777 19.175 17.4008 18.9808 17.0492 18.635C16.6975 18.2893 16.5 17.8203 16.5 17.3313C16.5 16.8423 16.6975 16.3733 17.0492 16.0276C17.4008 15.6818 17.8777 15.4875 18.375 15.4875C18.8723 15.4875 19.3492 15.6818 19.7008 16.0276C20.0525 16.3733 20.25 16.8423 20.25 17.3313C20.25 17.8203 20.0525 18.2893 19.7008 18.635C19.3492 18.9808 18.8723 19.175 18.375 19.175Z"
              fill="#222A36"/>
        <path d="M16.125 24.3375C15.6277 24.3375 15.1508 24.1433 14.7992 23.7975C14.4475 23.4517 14.25 22.9828 14.25 22.4938C14.25 22.0048 14.4475 21.5358 14.7992 21.19C15.1508 20.8443 15.6277 20.65 16.125 20.65C16.6223 20.65 17.0992 20.8443 17.4508 21.19C17.8025 21.5358 18 22.0048 18 22.4938C18 22.9828 17.8025 23.4517 17.4508 23.7975C17.0992 24.1433 16.6223 24.3375 16.125 24.3375V24.3375Z"
              fill="#222A36"/>
        <path d="M21.555 5.31754C21.7329 5.22384 21.9281 5.16639 22.1291 5.14862C22.33 5.13086 22.5326 5.15315 22.7246 5.21415C22.9166 5.27516 23.0941 5.37363 23.2465 5.50367C23.3989 5.63371 23.523 5.79264 23.6115 5.97097L29.751 18.361C29.8535 18.5837 29.8659 18.8364 29.7857 19.0678C29.7055 19.2992 29.5387 19.4918 29.3192 19.6066C29.0997 19.7214 28.844 19.7497 28.6041 19.6857C28.3641 19.6217 28.158 19.4703 28.0275 19.2622L20.9655 7.35894C20.864 7.18771 20.7987 6.99808 20.7735 6.80142C20.7483 6.60477 20.7638 6.40514 20.819 6.2145C20.8742 6.02387 20.9679 5.84616 21.0947 5.69203C21.2214 5.5379 21.3785 5.41052 21.5565 5.31754H21.555Z"
              fill="#222A36"/>
        <path fill-rule="evenodd" clip-rule="evenodd"
              d="M18.8054 5.13899C19.5359 6.48861 20.7644 6.86621 21.9524 6.24524C23.1389 5.62574 23.5094 4.41181 22.7789 3.06219C21.9449 1.51639 20.1569 0.115138 18.9719 0.733163C17.7869 1.35266 17.9699 3.59319 18.8069 5.13899H18.8054ZM20.1299 4.44574C19.8643 3.92128 19.7015 3.35235 19.6499 2.76866C19.6276 2.52465 19.6367 2.27884 19.6769 2.03706L19.7039 2.05034C19.7789 2.08574 20.0114 2.19194 20.3084 2.42499C20.7614 2.78046 21.2114 3.30409 21.4544 3.75396C21.7979 4.38821 21.7004 4.70681 21.2474 4.94429C20.7974 5.18029 20.4734 5.07999 20.1299 4.44721V4.44574Z"
              fill="#222A36"/>
    </g>

    <g id="lightning">
        <path d="M19.105 3.42873C19.7563 2.61871 19.1425 1.45837 18.06 1.45837H9.66504C9.19629 1.45837 8.76254 1.69437 8.52879 2.07542L2.17629 12.4692C1.67504 13.2879 2.30504 14.3093 3.31129 14.3093H7.59754L3.56004 24.2225C2.97629 25.4763 4.55379 26.6231 5.61379 25.716L22 10.4694H13.4388L19.105 3.42873V3.42873Z"
              stroke-width="2" stroke-linecap="round" stroke-linejoin="round"/>
    </g>

    <g id="computer">
        <path fill-rule="evenodd" clip-rule="evenodd"
              d="M4.5 8.12505C4.5 7.34266 4.81607 6.59232 5.37868 6.03908C5.94129 5.48585 6.70435 5.17505 7.5 5.17505H22.5C23.2956 5.17505 24.0587 5.48585 24.6213 6.03908C25.1839 6.59232 25.5 7.34266 25.5 8.12505V19.925C25.5 20.7074 25.1839 21.4578 24.6213 22.011C24.0587 22.5642 23.2956 22.875 22.5 22.875H19.17L19.3545 23.5963L20.5605 24.7822C20.7702 24.9885 20.913 25.2513 20.9709 25.5374C21.0287 25.8235 20.999 26.12 20.8855 26.3895C20.772 26.6589 20.5798 26.8893 20.3332 27.0514C20.0866 27.2134 19.7966 27.3 19.5 27.3H10.5C10.2034 27.3 9.91343 27.2134 9.66681 27.0514C9.4202 26.8893 9.22799 26.6589 9.11448 26.3895C9.00098 26.12 8.97127 25.8235 9.02912 25.5374C9.08698 25.2513 9.22979 24.9885 9.4395 24.7822L10.6455 23.5963L10.83 22.875H7.5C6.70435 22.875 5.94129 22.5642 5.37868 22.011C4.81607 21.4578 4.5 20.7074 4.5 19.925V8.12505ZM13.1565 18.45H7.5V8.12505H22.5V18.45H13.1565Z"
              stroke-width="2" stroke-linecap="round" stroke-linejoin="round"/>
    </g>

    <!--  SOCIAL  -->
    <g id="dribble">
        <path d="M22.9167 12.5C22.9184 13.8721 22.6483 15.2308 22.1218 16.4979C21.5953 17.7649 20.823 18.915 19.8495 19.8818C18.8839 20.8457 17.7378 21.6098 16.4767 22.1306C15.2157 22.6513 13.8643 22.9185 12.5 22.9167C6.74686 22.9167 2.08332 18.2531 2.08332 12.5C2.07968 9.82906 3.10565 7.25947 4.94791 5.32554C5.91996 4.29981 7.09109 3.48322 8.38964 2.92574C9.68819 2.36826 11.0868 2.08162 12.5 2.08335C13.8643 2.08159 15.2157 2.34871 16.4767 2.86945C17.7378 3.3902 18.8839 4.15435 19.8495 5.11825C20.823 6.08503 21.5953 7.23516 22.1218 8.50218C22.6483 9.7692 22.9184 11.128 22.9167 12.5V12.5Z"
              stroke="white" stroke-width="2" stroke-linecap="round" stroke-linejoin="round"/>
        <path d="M22.9167 12.5C21.3969 12.5 17.2042 11.9271 13.4515 13.5745C9.37498 15.3646 6.42342 18.1411 5.13696 19.8682"
              stroke="white" stroke-width="2" stroke-linecap="round" stroke-linejoin="round"/>
        <path d="M8.59375 2.84064C10.224 4.34532 13.7812 8.17657 15.1042 11.9792C16.4271 15.7823 16.9167 20.4583 17.2188 21.7891"
              stroke="white" stroke-width="2" stroke-linecap="round" stroke-linejoin="round"/>
        <path d="M2.16354 11.1979C4.13125 11.3167 9.34011 11.4235 12.6734 10C16.0068 8.57658 18.875 5.95835 19.8589 5.12762"
              stroke="white" stroke-width="2" stroke-linecap="round" stroke-linejoin="round"/>
        <path d="M2.86456 16.4651C3.78243 18.6869 5.43785 20.5246 7.55206 21.6688" stroke="white" stroke-width="2"
              stroke-linecap="round" stroke-linejoin="round"/>
        <path d="M2.08332 12.5C2.07968 9.82906 3.10565 7.25947 4.94791 5.32553" stroke="white" stroke-width="2"
              stroke-linecap="round" stroke-linejoin="round"/>
        <path d="M12.5 2.08335C11.0868 2.08162 9.68819 2.36826 8.38964 2.92574C7.09109 3.48322 5.91996 4.29981 4.94791 5.32554"
              stroke="white" stroke-width="2" stroke-linecap="round" stroke-linejoin="round"/>
        <path d="M16.6667 2.95001C17.8529 3.46904 18.9322 4.2043 19.8495 5.11824C20.823 6.08503 21.5954 7.23516 22.1218 8.50217C22.6483 9.76919 22.9184 11.128 22.9167 12.5C22.9167 13.7828 22.6849 15.011 22.2604 16.1458"
              stroke="white" stroke-width="2" stroke-linecap="round" stroke-linejoin="round"/>
        <path d="M12.5 22.9167C13.8644 22.9185 15.2157 22.6513 16.4767 22.1306C17.7378 21.6099 18.8839 20.8457 19.8495 19.8818"
              stroke="white" stroke-width="2" stroke-linecap="round" stroke-linejoin="round"/>
    </g>

    <g id="upwork">
        <path d="M19.3359 13.7047C18.1883 13.7047 17.1102 13.2203 16.1336 12.4273L16.3695 11.3086L16.3773 11.2641C16.593 10.0758 17.2602 8.07812 19.3352 8.07812C20.0818 8.07833 20.7979 8.37504 21.3259 8.90303C21.8539 9.43101 22.1506 10.1471 22.1508 10.8937C22.1495 11.6398 21.8524 12.3548 21.3245 12.8819C20.7966 13.4091 20.0812 13.7053 19.3352 13.7055L19.3359 13.7047ZM19.3359 5.2289C16.6914 5.2289 14.6359 6.94609 13.8023 9.77421C12.5328 7.86562 11.5641 5.57109 11.0031 3.63828H8.15469V11.0477C8.15324 11.7509 7.87325 12.4249 7.37601 12.9221C6.87876 13.4193 6.20477 13.6993 5.50156 13.7008C4.79854 13.6987 4.12491 13.4185 3.6278 12.9214C3.13069 12.4243 2.8505 11.7507 2.84844 11.0477V3.63828H0V11.0477C0 14.0828 2.46953 16.5695 5.50156 16.5695C8.53672 16.5695 11.0031 14.0836 11.0031 11.0477V9.80624C11.5562 10.9578 12.2359 12.1297 13.0617 13.1633L11.3164 21.3625H14.2297L15.4953 15.4133C16.6023 16.1211 17.8758 16.5687 19.3367 16.5687C22.4617 16.5687 25.0008 14.0133 25.0008 10.8922C25.0008 7.76718 22.4617 5.22812 19.3367 5.22812L19.3359 5.2289Z"
              fill="white"/>
    </g>

    <g id="linkedin">
        <path fill-rule="evenodd" clip-rule="evenodd"
              d="M1.04167 2.95624C1.04167 2.44846 1.24339 1.96148 1.60244 1.60243C1.96149 1.24337 2.44848 1.04166 2.95626 1.04166H22.0417C22.2933 1.04125 22.5426 1.09047 22.7752 1.18652C23.0077 1.28257 23.2191 1.42354 23.3971 1.60138C23.5752 1.77922 23.7164 1.99043 23.8127 2.22292C23.909 2.45541 23.9585 2.7046 23.9583 2.95624V22.0417C23.9586 22.2934 23.9093 22.5426 23.8131 22.7752C23.7169 23.0078 23.5759 23.2192 23.3979 23.3972C23.22 23.5752 23.0087 23.7164 22.7762 23.8127C22.5437 23.909 22.2944 23.9585 22.0427 23.9583H2.95626C2.70474 23.9583 2.45569 23.9088 2.22334 23.8125C1.99098 23.7162 1.77987 23.5751 1.60207 23.3972C1.42427 23.2193 1.28327 23.0081 1.18711 22.7757C1.09096 22.5433 1.04154 22.2942 1.04167 22.0427V2.95624ZM10.1125 9.77916H13.2156V11.3375C13.6635 10.4417 14.8094 9.63541 16.5313 9.63541C19.8323 9.63541 20.6146 11.4198 20.6146 14.6937V20.7583H17.274V15.4396C17.274 13.575 16.826 12.5229 15.6885 12.5229C14.1104 12.5229 13.4542 13.6573 13.4542 15.4396V20.7583H10.1125V9.77916ZM4.38334 20.6156H7.72501V9.63541H4.38334V20.6146V20.6156ZM8.20313 6.05416C8.20943 6.34028 8.15852 6.62477 8.05338 6.89095C7.94824 7.15712 7.791 7.39961 7.59087 7.60419C7.39075 7.80877 7.15178 7.97132 6.88798 8.08229C6.62418 8.19326 6.34088 8.25043 6.05469 8.25043C5.76851 8.25043 5.4852 8.19326 5.22141 8.08229C4.95761 7.97132 4.71864 7.80877 4.51851 7.60419C4.31839 7.39961 4.16114 7.15712 4.05601 6.89095C3.95087 6.62477 3.89996 6.34028 3.90626 6.05416C3.91862 5.49255 4.15041 4.95811 4.55197 4.56529C4.95353 4.17247 5.49295 3.95251 6.05469 3.95251C6.61644 3.95251 7.15585 4.17247 7.55742 4.56529C7.95898 4.95811 8.19076 5.49255 8.20313 6.05416Z"
              fill="white"/>
    </g>

    <g id="github">
        <path fill-rule="evenodd" clip-rule="evenodd"
              d="M12.5 0C5.59375 0 0 5.59375 0 12.5C0 18.0312 3.57812 22.7031 8.54688 24.3594C9.17188 24.4688 9.40625 24.0938 9.40625 23.7656C9.40625 23.4688 9.39062 22.4844 9.39062 21.4375C6.25 22.0156 5.4375 20.6719 5.1875 19.9688C5.04688 19.6094 4.4375 18.5 3.90625 18.2031C3.46875 17.9688 2.84375 17.3906 3.89062 17.375C4.875 17.3594 5.57812 18.2812 5.8125 18.6562C6.9375 20.5469 8.73437 20.0156 9.45312 19.6875C9.5625 18.875 9.89062 18.3281 10.25 18.0156C7.46875 17.7031 4.5625 16.625 4.5625 11.8437C4.5625 10.4844 5.04688 9.35938 5.84375 8.48438C5.71875 8.17188 5.28125 6.89062 5.96875 5.17188C5.96875 5.17188 7.01562 4.84375 9.40625 6.45312C10.4062 6.17188 11.4687 6.03125 12.5312 6.03125C13.5937 6.03125 14.6562 6.17188 15.6562 6.45312C18.0469 4.82812 19.0938 5.17188 19.0938 5.17188C19.7812 6.89062 19.3438 8.17188 19.2188 8.48438C20.0156 9.35938 20.5 10.4687 20.5 11.8437C20.5 16.6406 17.5781 17.7031 14.7969 18.0156C15.25 18.4062 15.6406 19.1562 15.6406 20.3281C15.6406 22 15.625 23.3438 15.625 23.7656C15.625 24.0938 15.8594 24.4844 16.4844 24.3594C18.9658 23.5216 21.1221 21.9268 22.6496 19.7993C24.1772 17.6719 24.9993 15.119 25 12.5C25 5.59375 19.4062 0 12.5 0Z"
              fill="white"/>
    </g>

    <g id="youtube">
        <path d="M24.4793 6.77812C24.3377 6.27316 24.062 5.81598 23.6814 5.45521C23.29 5.08333 22.8103 4.81733 22.2876 4.68229C20.3314 4.16666 12.4939 4.16666 12.4939 4.16666C9.22651 4.12949 5.95995 4.29299 2.71262 4.65625C2.18991 4.80126 1.71113 5.07321 1.31887 5.44791C0.933457 5.81875 0.654291 6.27604 0.508457 6.77708C0.158138 8.66431 -0.0120717 10.5806 0.0001241 12.5C-0.0123759 14.4177 0.157416 16.3333 0.508457 18.2229C0.651166 18.7219 0.929291 19.1771 1.31575 19.5448C1.70221 19.9125 2.18346 20.1781 2.71262 20.3187C4.69492 20.8333 12.4939 20.8333 12.4939 20.8333C15.7654 20.8706 19.0361 20.7071 22.2876 20.3437C22.8103 20.2087 23.29 19.9427 23.6814 19.5708C24.0668 19.2031 24.3408 18.7458 24.4783 18.2479C24.8377 16.3614 25.0125 14.4444 25.0001 12.524C25.0272 10.5954 24.8526 8.66934 24.4793 6.77708V6.77812ZM10.0022 16.0667V8.93437L16.523 12.501L10.0022 16.0667Z"
              fill="white"/>
    </g>

    <g id="mail">
        <path d="M18.125 3.125H1.875C1.5293 3.125 1.25 3.4043 1.25 3.75V16.25C1.25 16.5957 1.5293 16.875 1.875 16.875H18.125C18.4707 16.875 18.75 16.5957 18.75 16.25V3.75C18.75 3.4043 18.4707 3.125 18.125 3.125ZM16.5469 5.25195L10.3848 10.0469C10.2324 10.166 10.0195 10.166 9.86719 10.0469L3.70312 5.25195C3.67989 5.23402 3.66285 5.20927 3.65438 5.18116C3.64592 5.15306 3.64647 5.12301 3.65594 5.09523C3.66542 5.06745 3.68335 5.04333 3.70722 5.02625C3.73109 5.00918 3.75971 5 3.78906 5H16.4609C16.4903 5 16.5189 5.00918 16.5428 5.02625C16.5667 5.04333 16.5846 5.06745 16.5941 5.09523C16.6035 5.12301 16.6041 5.15306 16.5956 5.18116C16.5872 5.20927 16.5701 5.23402 16.5469 5.25195Z"
              fill="white"/>
    </g>

    <!--  LOGO  -->
    <g id="logo">
        <path d="M48 23.79C48 29.2269 46.1148 34.4955 42.6657 38.6983C39.2166 42.901 34.417 45.7778 29.0846 46.8385C23.7522 47.8992 18.2171 47.0781 13.4222 44.5152C8.62731 41.9523 4.86942 37.8061 2.78883 32.7831C0.708239 27.7601 0.433668 22.1711 2.0119 16.9684C3.59013 11.7656 6.92352 7.27106 11.4441 4.2505C15.9647 1.22995 21.3927 -0.129706 26.8034 0.403198C32.2141 0.936101 37.2726 3.3286 41.117 7.17303L38.5485 9.74152C35.2983 6.49133 31.0217 4.46864 26.4474 4.01811C21.873 3.56757 17.284 4.71707 13.4622 7.27073C9.64032 9.8244 6.82218 13.6242 5.48789 18.0228C4.15361 22.4213 4.38574 27.1465 6.14473 31.393C7.90373 35.6396 11.0808 39.1449 15.1345 41.3117C19.1882 43.4785 23.8678 44.1726 28.376 43.2759C32.8841 42.3792 36.9419 39.947 39.8579 36.3939C42.7738 32.8408 44.3676 28.3865 44.3676 23.79H48Z"
              fill="white"/>
        <path d="M16.0159 39.0958C12.4748 37.1329 9.72382 34.003 8.23174 30.2392C6.73967 26.4755 6.59878 22.3108 7.83309 18.4548C9.0674 14.5988 11.6005 11.2901 15.0009 9.09244C18.4012 6.89477 22.4584 5.9441 26.4811 6.40243C30.5038 6.86076 34.2431 8.69972 37.0619 11.606C39.8807 14.5122 41.6047 18.306 41.9399 22.3408C42.2752 26.3756 41.2011 30.4018 38.9006 33.7335C36.6001 37.0651 33.2156 39.496 29.3237 40.612L28.5781 38.0118C31.8684 37.0683 34.7298 35.0132 36.6747 32.1965C38.6196 29.3798 39.5277 25.9759 39.2442 22.5648C38.9608 19.1536 37.5033 15.9463 35.1202 13.4893C32.7371 11.0322 29.5758 9.4775 26.1749 9.09002C22.774 8.70254 19.3439 9.50626 16.4692 11.3642C13.5944 13.2222 11.4528 16.0195 10.4093 19.2795C9.36578 22.5394 9.48489 26.0604 10.7463 29.2424C12.0078 32.4243 14.3335 35.0705 17.3273 36.73L16.0159 39.0958Z"
              fill="white"/>
        <path d="M24.5 11.29C27.3919 11.29 30.1944 12.2928 32.4299 14.1274C34.6654 15.962 36.1956 18.515 36.7598 21.3514C37.324 24.1878 36.8873 27.132 35.524 29.6825C34.1608 32.233 31.9554 34.2318 29.2835 35.3385C26.6117 36.4452 23.6389 36.5913 20.8714 35.7518C18.104 34.9123 15.7133 33.1392 14.1066 30.7347C12.5 28.3301 11.7767 25.4428 12.0602 22.5648C12.3437 19.6868 13.6163 16.9961 15.6612 14.9512L17.0274 16.3174C15.2986 18.0463 14.2227 20.321 13.983 22.7542C13.7434 25.1874 14.3548 27.6283 15.7131 29.6612C17.0715 31.6941 19.0927 33.1931 21.4323 33.9029C23.772 34.6126 26.2853 34.4891 28.5442 33.5535C30.803 32.6178 32.6675 30.9279 33.82 28.7717C34.9726 26.6155 35.3418 24.1263 34.8648 21.7283C34.3878 19.3304 33.0941 17.172 31.2042 15.621C29.3142 14.0699 26.9449 13.2222 24.5 13.2222L24.5 11.29Z"
              fill="white"/>
        <path d="M17.0301 19.7343C17.9685 18.0061 19.477 16.6567 21.2987 15.916C23.1205 15.1754 25.1426 15.0893 27.0207 15.6725C28.8988 16.2556 30.5165 17.4719 31.5983 19.1141C32.6802 20.7563 33.1591 22.7229 32.9535 24.6786C32.748 26.6344 31.8706 28.4583 30.471 29.8397C29.0714 31.2211 27.2361 32.0745 25.2779 32.2545C23.3196 32.4344 21.3595 31.9298 19.7316 30.8266C18.1037 29.7233 16.9086 28.0898 16.3501 26.2043L17.7273 25.7963C18.1915 27.3632 19.1846 28.7207 20.5374 29.6375C21.8902 30.5543 23.5191 30.9737 25.1464 30.8241C26.7738 30.6746 28.2989 29.9654 29.462 28.8175C30.6251 27.6695 31.3542 26.1537 31.525 24.5285C31.6959 22.9032 31.2979 21.269 30.3989 19.9043C29.4999 18.5396 28.1555 17.5288 26.5948 17.0442C25.034 16.5596 23.3536 16.6311 21.8397 17.2466C20.3258 17.8621 19.0722 18.9835 18.2924 20.4196L17.0301 19.7343Z"
              fill="white"/>
        <path d="M28.2197 26.3227C27.6337 27.1833 26.7675 27.8141 25.7687 28.1076C24.7698 28.4011 23.7001 28.3392 22.7417 27.9324C21.7834 27.5256 20.9958 26.7991 20.513 25.8767C20.0303 24.9543 19.8823 23.893 20.0943 22.8737C20.3063 21.8544 20.8652 20.9402 21.6757 20.2868C22.4862 19.6334 23.4982 19.2812 24.5393 19.2903C25.5803 19.2994 26.586 19.6692 27.385 20.3366C28.184 21.0041 28.7269 21.9279 28.921 22.9508L28.0934 23.1079C27.9356 22.2765 27.4944 21.5256 26.845 20.9831C26.1955 20.4406 25.3781 20.14 24.5319 20.1326C23.6858 20.1253 22.8632 20.4115 22.2044 20.9426C21.5456 21.4737 21.0914 22.2168 20.9191 23.0453C20.7467 23.8737 20.867 24.7363 21.2594 25.4861C21.6517 26.2358 22.2919 26.8263 23.0709 27.157C23.8498 27.4876 24.7193 27.5379 25.5312 27.2994C26.3431 27.0608 27.0471 26.5481 27.5234 25.8486L28.2197 26.3227Z"
              fill="white"/>
        <path d="M23.7068 21.4192C24.2553 21.2357 24.8504 21.248 25.3909 21.4541C25.9313 21.6602 26.3835 22.0473 26.6705 22.5495C26.9575 23.0516 27.0615 23.6378 26.9648 24.208C26.8681 24.7783 26.5767 25.2973 26.1402 25.6768C25.7037 26.0563 25.1491 26.2726 24.5709 26.289C23.9928 26.3054 23.4268 26.1209 22.9695 25.7668C22.5122 25.4127 22.1918 24.9109 22.0629 24.3471C21.934 23.7832 22.0046 23.1922 22.2627 22.6745L23.1394 23.1117C22.9825 23.4264 22.9395 23.7859 23.0179 24.1288C23.0963 24.4717 23.2911 24.7768 23.5693 24.9921C23.8474 25.2075 24.1916 25.3197 24.5431 25.3098C24.8947 25.2998 25.232 25.1682 25.4975 24.9374C25.7629 24.7067 25.9402 24.391 25.999 24.0442C26.0578 23.6974 25.9945 23.341 25.82 23.0356C25.6454 22.7302 25.3704 22.4948 25.0418 22.3695C24.7131 22.2442 24.3512 22.2367 24.0176 22.3483L23.7068 21.4192Z"
              fill="white"/>
        <circle cx="24.5" cy="23.79" r="0.5" transform="rotate(-180 24.5 23.79)" fill="white"/>
        <path d="M77.83 19.65C77.83 20.71 77.58 21.71 77.08 22.65C76.58 23.59 75.78 24.36 74.68 24.96C73.58 25.54 72.17 25.83 70.45 25.83H66.67V34.29H63.25V13.44H70.45C72.05 13.44 73.4 13.72 74.5 14.28C75.62 14.82 76.45 15.56 76.99 16.5C77.55 17.44 77.83 18.49 77.83 19.65ZM70.45 23.04C71.75 23.04 72.72 22.75 73.36 22.17C74 21.57 74.32 20.73 74.32 19.65C74.32 17.37 73.03 16.23 70.45 16.23H66.67V23.04H70.45ZM88.2618 34.56C86.7018 34.56 85.2918 34.21 84.0318 33.51C82.7718 32.79 81.7818 31.79 81.0618 30.51C80.3418 29.21 79.9818 27.71 79.9818 26.01C79.9818 24.33 80.3518 22.84 81.0918 21.54C81.8318 20.24 82.8418 19.24 84.1218 18.54C85.4018 17.84 86.8318 17.49 88.4118 17.49C89.9918 17.49 91.4218 17.84 92.7018 18.54C93.9818 19.24 94.9918 20.24 95.7318 21.54C96.4718 22.84 96.8418 24.33 96.8418 26.01C96.8418 27.69 96.4618 29.18 95.7018 30.48C94.9418 31.78 93.9018 32.79 92.5818 33.51C91.2818 34.21 89.8418 34.56 88.2618 34.56ZM88.2618 31.59C89.1418 31.59 89.9618 31.38 90.7218 30.96C91.5018 30.54 92.1318 29.91 92.6118 29.07C93.0918 28.23 93.3318 27.21 93.3318 26.01C93.3318 24.81 93.1018 23.8 92.6418 22.98C92.1818 22.14 91.5718 21.51 90.8118 21.09C90.0518 20.67 89.2318 20.46 88.3518 20.46C87.4718 20.46 86.6518 20.67 85.8918 21.09C85.1518 21.51 84.5618 22.14 84.1218 22.98C83.6818 23.8 83.4618 24.81 83.4618 26.01C83.4618 27.79 83.9118 29.17 84.8118 30.15C85.7318 31.11 86.8818 31.59 88.2618 31.59ZM103.643 20.16C104.143 19.32 104.803 18.67 105.623 18.21C106.463 17.73 107.453 17.49 108.593 17.49V21.03H107.723C106.383 21.03 105.363 21.37 104.663 22.05C103.983 22.73 103.643 23.91 103.643 25.59V34.29H100.223V17.76H103.643V20.16ZM115.726 20.55V29.7C115.726 30.32 115.866 30.77 116.146 31.05C116.446 31.31 116.946 31.44 117.646 31.44H119.746V34.29H117.046C115.506 34.29 114.326 33.93 113.506 33.21C112.686 32.49 112.276 31.32 112.276 29.7V20.55H110.326V17.76H112.276V13.65H115.726V17.76H119.746V20.55H115.726ZM129.828 20.55H126.768V34.29H123.318V20.55H121.368V17.76H123.318V16.59C123.318 14.69 123.818 13.31 124.818 12.45C125.838 11.57 127.428 11.13 129.588 11.13V13.98C128.548 13.98 127.818 14.18 127.398 14.58C126.978 14.96 126.768 15.63 126.768 16.59V17.76H129.828V20.55ZM140.029 34.56C138.469 34.56 137.059 34.21 135.799 33.51C134.539 32.79 133.549 31.79 132.829 30.51C132.109 29.21 131.749 27.71 131.749 26.01C131.749 24.33 132.119 22.84 132.859 21.54C133.599 20.24 134.609 19.24 135.889 18.54C137.169 17.84 138.599 17.49 140.179 17.49C141.759 17.49 143.189 17.84 144.469 18.54C145.749 19.24 146.759 20.24 147.499 21.54C148.239 22.84 148.609 24.33 148.609 26.01C148.609 27.69 148.229 29.18 147.469 30.48C146.709 31.78 145.669 32.79 144.349 33.51C143.049 34.21 141.609 34.56 140.029 34.56ZM140.029 31.59C140.909 31.59 141.729 31.38 142.489 30.96C143.269 30.54 143.899 29.91 144.379 29.07C144.859 28.23 145.099 27.21 145.099 26.01C145.099 24.81 144.869 23.8 144.409 22.98C143.949 22.14 143.339 21.51 142.579 21.09C141.819 20.67 140.999 20.46 140.119 20.46C139.239 20.46 138.419 20.67 137.659 21.09C136.919 21.51 136.329 22.14 135.889 22.98C135.449 23.8 135.229 24.81 135.229 26.01C135.229 27.79 135.679 29.17 136.579 30.15C137.499 31.11 138.649 31.59 140.029 31.59ZM155.41 12.09V34.29H151.99V12.09H155.41ZM161.64 15.57C161.02 15.57 160.5 15.36 160.08 14.94C159.66 14.52 159.45 14 159.45 13.38C159.45 12.76 159.66 12.24 160.08 11.82C160.5 11.4 161.02 11.19 161.64 11.19C162.24 11.19 162.75 11.4 163.17 11.82C163.59 12.24 163.8 12.76 163.8 13.38C163.8 14 163.59 14.52 163.17 14.94C162.75 15.36 162.24 15.57 161.64 15.57ZM163.32 17.76V34.29H159.9V17.76H163.32ZM174.981 34.56C173.421 34.56 172.011 34.21 170.751 33.51C169.491 32.79 168.501 31.79 167.781 30.51C167.061 29.21 166.701 27.71 166.701 26.01C166.701 24.33 167.071 22.84 167.811 21.54C168.551 20.24 169.561 19.24 170.841 18.54C172.121 17.84 173.551 17.49 175.131 17.49C176.711 17.49 178.141 17.84 179.421 18.54C180.701 19.24 181.711 20.24 182.451 21.54C183.191 22.84 183.561 24.33 183.561 26.01C183.561 27.69 183.181 29.18 182.421 30.48C181.661 31.78 180.621 32.79 179.301 33.51C178.001 34.21 176.561 34.56 174.981 34.56ZM174.981 31.59C175.861 31.59 176.681 31.38 177.441 30.96C178.221 30.54 178.851 29.91 179.331 29.07C179.811 28.23 180.051 27.21 180.051 26.01C180.051 24.81 179.821 23.8 179.361 22.98C178.901 22.14 178.291 21.51 177.531 21.09C176.771 20.67 175.951 20.46 175.071 20.46C174.191 20.46 173.371 20.67 172.611 21.09C171.871 21.51 171.281 22.14 170.841 22.98C170.401 23.8 170.181 24.81 170.181 26.01C170.181 27.79 170.631 29.17 171.531 30.15C172.451 31.11 173.601 31.59 174.981 31.59Z"
              fill="white"/>
    </g>

    <!-- Technologies  -->
    <g id="react">
        <path d="M100 48.7043C100 42.0793 91.7042 35.8001 78.9833 31.9084C81.9208 18.9459 80.6167 8.62925 74.8667 5.32508C73.4734 4.54475 71.8965 4.15197 70.3 4.18758V8.72925C71.2375 8.72925 71.9917 8.91675 72.625 9.26258C75.3958 10.8542 76.6 16.9043 75.6625 24.6917C75.4375 26.6084 75.0708 28.6251 74.6208 30.6834C70.361 29.6569 66.0375 28.915 61.6792 28.4626C59.0827 24.8805 56.25 21.4757 53.2 18.2709C59.8458 12.0959 66.0833 8.71258 70.325 8.71258V4.16675C64.7167 4.16675 57.3792 8.16258 49.9583 15.0917C42.5417 8.20842 35.2 4.25008 29.5958 4.25008V8.79175C33.8167 8.79175 40.075 12.1584 46.7208 18.2917C43.8667 21.2917 41.0125 24.6917 38.3 28.4626C33.9326 28.91 29.6015 29.659 25.3375 30.7043C24.8667 28.6667 24.5208 26.6918 24.275 24.7959C23.3167 17.0042 24.5 10.9542 27.2542 9.34592C27.8625 8.97925 28.6583 8.81258 29.5958 8.81258V4.27091C27.8875 4.27091 26.3333 4.63758 24.9917 5.40841C19.2625 8.71258 17.9792 19.0042 20.9333 31.9293C8.25417 35.8459 0 42.1001 0 48.7043C0 55.3293 8.29583 61.6084 21.0167 65.4959C18.0792 78.4626 19.3833 88.7793 25.1333 92.0793C26.4583 92.8543 28.0083 93.2209 29.7167 93.2209C35.325 93.2209 42.6625 89.2251 50.0833 82.2959C57.5 89.1834 64.8375 93.1376 70.4458 93.1376C72.0546 93.1716 73.6435 92.7776 75.05 91.9959C80.7792 88.6959 82.0625 78.4043 79.1083 65.4793C91.7458 61.5876 100 55.3084 100 48.7043ZM73.4583 35.1084C72.6666 37.8328 71.7489 40.519 70.7083 43.1584C69.0048 39.8449 67.1344 36.6199 65.1042 33.4959C68 33.9251 70.7917 34.4542 73.4625 35.1084H73.4583ZM64.125 56.8167C62.5375 59.5667 60.9042 62.1793 59.2125 64.6043C53.0969 65.1433 46.946 65.1502 40.8292 64.6251C37.3206 59.6133 34.2522 54.3074 31.6583 48.7668C34.2483 43.213 37.3036 37.8885 40.7917 32.8501C46.9058 32.31 53.0553 32.3016 59.1708 32.8251C60.8625 35.2501 62.5167 37.8418 64.1042 40.5751C65.6542 43.2417 67.0625 45.9501 68.3458 48.6834C67.0483 51.4499 65.6402 54.1632 64.125 56.8167ZM70.7083 54.1668C71.8083 56.8959 72.75 59.6292 73.5208 62.2793C70.8542 62.9334 68.0375 63.4834 65.125 63.9084C67.1468 60.756 69.0103 57.5047 70.7083 54.1668ZM50.0417 75.9167C48.1458 73.9584 46.25 71.7793 44.375 69.3917C46.2083 69.4751 48.0833 69.5376 49.9792 69.5376C51.8958 69.5376 53.7917 69.4959 55.6458 69.3917C53.8125 71.7793 51.9167 73.9584 50.0417 75.9167ZM34.875 63.9084C32.0656 63.5014 29.2765 62.9647 26.5167 62.3001C27.2708 59.6709 28.2083 56.9584 29.2667 54.2501C30.1042 55.8751 30.9833 57.5084 31.9417 59.1418C32.9 60.7709 33.875 62.3626 34.875 63.9084ZM49.9375 21.4917C51.8333 23.4501 53.7292 25.6292 55.6042 28.0168C53.7708 27.9334 51.8958 27.8709 50 27.8709C48.0833 27.8709 46.1875 27.9126 44.3333 28.0168C46.1667 25.6292 48.0625 23.4501 49.9375 21.4917ZM34.8542 33.5001C32.8328 36.6456 30.9694 39.8899 29.2708 43.2209C28.2009 40.5645 27.2623 37.8571 26.4583 35.1084C29.125 34.4751 31.9417 33.9251 34.8542 33.5001ZM16.4083 59.0168C9.19167 55.9417 4.525 51.9043 4.525 48.7043C4.525 45.5043 9.19167 41.4459 16.4083 38.3918C18.1583 37.6376 20.075 36.9626 22.0542 36.3334C23.2167 40.3251 24.7458 44.4834 26.6375 48.7459C24.8515 52.755 23.3411 56.8813 22.1167 61.0959C20.181 60.4966 18.276 59.8027 16.4083 59.0168ZM27.375 88.1418C24.6042 86.5584 23.4 80.5001 24.3375 72.7168C24.5625 70.8001 24.9292 68.7793 25.3792 66.7209C29.3708 67.7001 33.7333 68.4543 38.3208 68.9459C40.9174 72.528 43.7501 75.9327 46.8 79.1376C40.1542 85.3126 33.9167 88.6959 29.675 88.6959C28.8748 88.7047 28.0847 88.5157 27.375 88.1459V88.1418ZM75.725 72.6126C76.6833 80.4001 75.5 86.4543 72.7458 88.0626C72.1375 88.4293 71.3417 88.5918 70.4042 88.5918C66.1833 88.5918 59.925 85.2293 53.2792 79.0918C56.1333 76.1001 58.9875 72.6959 61.7 68.9251C66.0674 68.4777 70.3985 67.7287 74.6625 66.6834C75.1333 68.7418 75.4958 70.7168 75.725 72.6126ZM83.5708 59.0168C81.8208 59.7709 79.9042 60.4459 77.925 61.0751C76.6791 56.8389 75.1478 52.6919 73.3417 48.6626C75.2167 44.4251 76.7208 40.2876 77.8625 36.3126C79.8833 36.9417 81.7958 37.6376 83.5917 38.3918C90.8083 41.4668 95.475 45.5043 95.475 48.7043C95.4542 51.9043 90.7875 55.9626 83.5708 59.0168Z" fill="white" fill-opacity="0.5"/>
        <path d="M49.9791 58.021C52.4501 58.021 54.8198 57.0394 56.567 55.2922C58.3142 53.545 59.2958 51.1753 59.2958 48.7044C59.2958 46.2334 58.3142 43.8637 56.567 42.1165C54.8198 40.3693 52.4501 39.3877 49.9791 39.3877C47.5082 39.3877 45.1385 40.3693 43.3913 42.1165C41.644 43.8637 40.6625 46.2334 40.6625 48.7044C40.6625 51.1753 41.644 53.545 43.3913 55.2922C45.1385 57.0394 47.5082 58.021 49.9791 58.021Z" fill="white" fill-opacity="0.5"/>

    </g>

    <g id="sass">
        <path d="M47.1624 69.2063C47.1156 69.3001 47.0687 69.3751 47.1624 69.2063V69.2063ZM86.0874 55.6126C82.9437 55.6126 79.8437 56.3313 77.0249 57.7219C76.1031 55.8626 75.1499 54.2376 74.9937 53.0188C74.8062 51.5969 74.6031 50.7532 74.8218 49.0657C75.0406 47.3782 76.0249 44.9876 76.0093 44.8157C75.9937 44.6438 75.7906 43.7844 73.7749 43.7688C71.7593 43.7532 70.0249 44.1594 69.8218 44.6907C69.4652 45.6613 69.1882 46.6594 68.9937 47.6751C68.6343 49.5032 64.9656 56.0344 62.8874 59.4407C62.1999 58.1126 61.6218 56.9407 61.4968 56.0032C61.3093 54.5813 61.1062 53.7376 61.3249 52.0501C61.5437 50.3626 62.5281 47.9719 62.5124 47.8001C62.4968 47.6282 62.2937 46.7688 60.2812 46.7532C58.2687 46.7376 56.5312 47.1438 56.3281 47.6751C56.1249 48.2063 55.9062 49.4563 55.4999 50.6594C55.0937 51.8626 50.2031 62.7376 48.9249 65.5657C48.2687 67.0032 47.7062 68.1594 47.2999 68.9407C47.2374 69.0657 47.1906 69.1438 47.1593 69.2063C47.2062 69.1282 47.2374 69.0501 47.2374 69.0813C46.8937 69.7532 46.6906 70.1282 46.6906 70.1282V70.1438C46.4249 70.6438 46.1281 71.0969 45.9874 71.0969C45.8937 71.0969 45.6906 69.7844 46.0343 67.9876C46.7687 64.2063 48.5031 58.3313 48.4874 58.1282C48.4718 58.0188 48.8156 57.0032 47.3468 56.4563C45.9249 55.9407 45.4093 56.8001 45.2843 56.8001C45.1593 56.8001 45.0656 57.1126 45.0656 57.1126C45.0656 57.1126 46.6437 50.4876 42.0343 50.4876C39.1593 50.4876 35.1593 53.6438 33.1937 56.5032C31.9593 57.1751 29.2874 58.6282 26.4749 60.1751L23.2406 61.9563C23.1624 61.8782 23.0999 61.8001 23.0218 61.7219C17.4281 55.7532 7.10307 51.5344 7.54057 43.5188C7.69682 40.5969 8.71244 32.9251 27.3968 23.6126C42.7093 15.9876 54.9499 18.0813 57.0593 22.7376C60.0906 29.3782 50.5124 41.7376 34.6124 43.5188C28.5499 44.1907 25.3656 41.8469 24.5687 40.9719C23.7406 40.0501 23.6156 40.0032 23.3031 40.1751C22.7874 40.4563 23.1156 41.2688 23.3031 41.7532C23.7718 42.9876 25.7249 45.1751 29.0531 46.2688C31.9749 47.2219 39.0812 47.7532 47.6718 44.4251C57.3249 40.7063 64.8406 30.3469 62.6343 21.6751C60.3906 12.8626 45.7781 9.97194 31.9624 14.8782C23.7281 17.8001 14.8249 22.3938 8.42182 28.3782C0.81244 35.5032 -0.403185 41.7063 0.0968153 44.3001C1.87807 53.5032 14.5624 59.5032 19.6374 63.9407L18.9343 64.3313C16.3874 65.5969 6.71869 70.6594 4.29682 76.0032C1.56244 82.0657 4.74994 86.4094 6.84057 87.0032C13.3718 88.8157 20.0562 85.5501 23.6499 80.1907C27.2437 74.8313 26.8062 67.8313 25.1499 64.6438C25.1343 64.5969 25.1031 64.5657 25.0874 64.5188C26.9624 63.4083 28.8532 62.3248 30.7593 61.2688C30.1343 62.9563 29.6812 64.9876 29.4468 67.9251C29.1656 71.3626 30.5874 75.8157 32.4312 77.5657C33.2437 78.3313 34.2249 78.3469 34.8374 78.3469C36.9937 78.3469 37.9624 76.5657 39.0406 74.4407C40.3687 71.8469 41.5406 68.8313 41.5406 68.8313C41.5406 68.8313 40.0718 76.9876 44.0874 76.9876C45.5562 76.9876 47.0249 75.0969 47.6812 74.1282V74.1438C47.6812 74.1438 47.7124 74.0813 47.7906 73.9563C47.9468 73.7219 48.0249 73.5813 48.0249 73.5813V73.5344C48.6187 72.5188 49.9156 70.1907 51.8687 66.3469C54.3999 61.3782 56.8187 55.1751 56.8187 55.1751C57.0531 56.5376 57.3781 57.8844 57.7874 59.2063C58.2249 60.6907 59.1468 62.3157 59.8812 63.8938C59.2874 64.7063 58.9281 65.1751 58.9281 65.1751C58.9281 65.1876 58.9343 65.1969 58.9437 65.2063C58.4749 65.8313 57.9437 66.5032 57.3968 67.1594C55.3999 69.5344 53.0218 72.2532 52.7093 73.0344C52.3343 73.9563 52.4281 74.6438 53.1468 75.1751C53.6781 75.5813 54.6156 75.6438 55.5999 75.5657C57.3968 75.4407 58.6624 75.0032 59.2718 74.7219C60.3958 74.3192 61.4581 73.7618 62.4281 73.0657C64.3812 71.6282 65.5687 69.5657 65.4593 66.8469C65.3968 65.3469 64.9124 63.8469 64.3187 62.4407C64.4906 62.1907 64.6781 61.9251 64.8499 61.6594C66.8833 58.6255 68.7153 55.4614 70.3343 52.1876C70.5687 53.5501 70.8906 54.8969 71.3031 56.2188C71.6781 57.4844 72.4124 58.8751 73.0843 60.2344C70.1781 62.5938 68.3812 65.3282 67.7593 67.1251C66.6031 70.4532 67.5093 71.9532 69.2124 72.2969C69.9781 72.4532 71.0718 72.0938 71.8843 71.7501C73.0906 71.3469 74.2281 70.7626 75.2562 70.0157C77.2093 68.5782 79.0999 66.5626 78.9718 63.8282C78.9249 62.5938 78.5812 61.3594 78.1281 60.1719C80.5812 59.1407 83.7687 58.5782 87.8312 59.0469C96.5312 60.0626 98.2343 65.5001 97.9062 67.7657C97.5781 70.0313 95.7499 71.2969 95.1406 71.6719C94.5312 72.0469 94.3437 72.1876 94.3906 72.4688C94.4687 72.8751 94.7499 72.8594 95.2656 72.7657C95.9843 72.6407 99.8281 70.9219 100 66.7188C100.25 61.4063 95.1406 55.5626 86.0937 55.6094L86.0874 55.6126ZM19.0281 78.2219C16.1531 81.3626 12.1249 82.5501 10.3906 81.5501C8.53119 80.4688 9.26557 75.8469 12.8093 72.5001C14.9656 70.4688 17.7468 68.5938 19.5906 67.4376C20.0124 67.1876 20.6218 66.8126 21.3718 66.3594C21.4328 66.3204 21.4953 66.2839 21.5593 66.2501C21.6999 66.1563 21.8562 66.0782 22.0124 65.9844C23.3062 70.7344 22.0593 74.9219 19.0281 78.2188V78.2219ZM40.0218 63.9407C39.0218 66.3938 36.9156 72.6438 35.6312 72.3157C34.5374 72.0344 33.8656 67.2688 35.4124 62.5813C36.1937 60.2219 37.8499 57.4094 38.8343 56.3157C40.4124 54.5501 42.1468 53.9876 42.5531 54.6907C43.0999 55.6126 40.6468 62.4094 40.0218 63.9407ZM57.3656 72.2219C56.9437 72.4407 56.5531 72.5813 56.3656 72.4719C56.2249 72.3938 56.5374 72.0969 56.5374 72.0969C56.5374 72.0969 58.7093 69.7688 59.5687 68.7063C60.0687 68.0813 60.6468 67.3469 61.2718 66.5344C61.2718 66.6126 61.2874 66.6907 61.2874 66.7844C61.2687 69.5813 58.5812 71.4719 57.3624 72.2219H57.3656ZM70.7406 69.1751C70.4281 68.9563 70.4749 68.2219 71.5218 65.9407C71.9281 65.0501 72.8656 63.5501 74.4906 62.1126C74.6749 62.6563 74.7749 63.2251 74.7874 63.8001C74.7718 67.3157 72.2562 68.6282 70.7406 69.1751V69.1751Z"
              fill="white" fill-opacity="0.5"/>
    </g>

    <g id="figma">
        <path d="M63.8833 36.1167C67.4928 36.0084 70.9181 34.4984 73.4329 31.907C75.9477 29.3156 77.3542 25.8466 77.3542 22.2355C77.3542 18.6244 75.9477 15.1554 73.4329 12.564C70.9181 9.97255 67.4928 8.46257 63.8833 8.35425H36.1167C32.5072 8.46257 29.0819 9.97255 26.5671 12.564C24.0523 15.1554 22.6458 18.6244 22.6458 22.2355C22.6458 25.8466 24.0523 29.3156 26.5671 31.907C29.0819 34.4984 32.5072 36.0084 36.1167 36.1167C32.4757 36.1798 29.0051 37.6705 26.4526 40.2676C23.9 42.8648 22.4697 46.3606 22.4697 50.0022C22.4697 53.6437 23.9 57.1395 26.4526 59.7367C29.0051 62.3339 32.4757 63.8245 36.1167 63.8876C32.4935 63.9764 29.0485 65.478 26.5173 68.072C23.9862 70.6659 22.5693 74.1466 22.5693 77.7709C22.5693 81.3952 23.9862 84.8759 26.5173 87.4698C29.0485 90.0638 32.4935 91.5655 36.1167 91.6543C39.7988 91.652 43.3294 90.188 45.9327 87.584C48.536 84.9799 49.9989 81.4489 50 77.7667V36.1167H63.8833Z"
              fill="white" fill-opacity="0.5"/>
        <path d="M63.8833 63.8834C71.5509 63.8834 77.7667 57.6676 77.7667 50C77.7667 42.3325 71.5509 36.1167 63.8833 36.1167C56.2158 36.1167 50 42.3325 50 50C50 57.6676 56.2158 63.8834 63.8833 63.8834Z"
              fill="white" fill-opacity="0.5"/>
    </g>

    <g id="html">
        <path d="M14.1798 9.375L20.6251 82.2852L50.0001 90.625L79.258 82.2852L85.8302 9.375H14.1798ZM72.2853 26.6699L71.8166 31.2793L71.6505 33.1836H37.3341L38.1349 42.3828H70.8595L70.5373 44.7559L68.4669 68.4082L68.3009 69.9902L50.0392 75.0293V75.0586H49.922L49.8927 75.0684V75.0586H49.883L31.465 69.9805L30.3517 55.8594H39.2482L39.883 63.0078L49.883 65.7129H49.922L59.883 63.0176L60.9962 51.4355H49.8927V51.4258H29.883L27.6564 26.6699L27.4904 24.2969H72.4415L72.2853 26.6699Z" fill="white" fill-opacity="0.5"/>

    </g>

    <g id="css">
        <path d="M17.4667 13.0957H82.5292L76.6125 79.904L49.9292 87.454L23.3917 79.8999L17.4667 13.0957ZM70.4167 26.7665L29.5833 26.7582L30.2417 34.879L61.6125 34.8874L60.825 43.304H40.25L40.9958 51.2749H60.15L59.0167 62.1915L50 64.6832L40.8458 62.1707L40.2583 55.6332H32.175L33.075 67.579L50 72.8499L66.6458 68.1124L70.4167 26.7665Z"
              fill="white" fill-opacity="0.5"/>
    </g>

    <!--Download-->
    <g id="download">
        <path d="M10 12.5L13.3333 9.16667M10 12.5V2.5V12.5ZM10 12.5L6.66667 9.16667L10 12.5Z" stroke="white"
              stroke-width="2" stroke-linecap="round" stroke-linejoin="round"/>
        <path d="M1.66667 14.1667L2.18417 16.2376C2.2743 16.5981 2.48236 16.9182 2.77528 17.147C3.0682 17.3757 3.42918 17.5 3.80084 17.5001H16.1992C16.5708 17.5 16.9318 17.3757 17.2247 17.147C17.5177 16.9182 17.7257 16.5981 17.8158 16.2376L18.3333 14.1667"
              stroke="white" stroke-width="2" stroke-linecap="round" stroke-linejoin="round"/>
    </g>

    <!--Arrow-->
    <g id="arrow-right">
        <path d="M6.66666 20.0001H33.3333" stroke="#676CDB" stroke-width="2" stroke-linecap="round"
              stroke-linejoin="round"/>
        <path d="M21.6667 8.33337L33.3333 20L21.6667 31.6667" stroke="#676CDB" stroke-width="2" stroke-linecap="round"
              stroke-linejoin="round"/>
    </g>
</svg>
